<svg xmlns="http://www.w3.org/2000/svg" width="24" height="22" fill="none"><path fill="#fff" d="M11.907 2.024A.195.195 0 0 1 12.003 2c.033 0 .066.008.095.024.034.02.062.05.08.085l10.286 17.5c.054.09.053.187.003.275a.243.243 0 0 1-.081.09.174.174 0 0 1-.099.026H1.719a.173.173 0 0 1-.099-.026.244.244 0 0 1-.081-.09.264.264 0 0 1 .003-.274l10.284-17.5a.221.221 0 0 1 .081-.086Zm1.566-.675a1.694 1.694 0 0 0-2.94 0L.248 18.849c-.686 1.167.136 2.65 1.47 2.65h20.569c1.334 0 2.157-1.484 1.47-2.65L13.473 1.35Z"/></svg>